arm28_optimize_states
version=1
nRows=30
nColumns=21
inDegrees=yes

# SIMM Motion File Header:
name arm28_optimize_states
datacolumns 21
datarows 30
otherdata 1
range 0.18833269 0.19325480
endheader
time	r_shoulder_elev	r_elbow_flex	r_shoulder_elev_u	r_elbow_flex_u	TRIlong.activation	TRIlong.fiber_length	TRIlat.activation	TRIlat.fiber_length	TRImed.activation	TRImed.fiber_length	BIClong.activation	BIClong.fiber_length	BICshort.activation	BICshort.fiber_length	BRA.activation	BRA.fiber_length	DeltAnt.activation	DeltAnt.fiber_length	DeltPost.activation	DeltPost.fiber_length
      0.18833269	    -11.06793493	     10.90236965	    383.57350376	  -1943.99825757	      0.01320006	      0.13472753	      0.01320006	      0.08698607	      0.01320006	      0.08189996	      0.01320006	      0.14598237	      0.01320006	      0.14777110	      0.01320006	      0.08701396	      0.01320006	      0.16867466	      0.01320006	      0.09844676
      0.18850242	    -11.00276107	     10.57227830	    384.40785443	  -1945.65501952	      0.01319301	      0.13465574	      0.01319301	      0.08693587	      0.01319301	      0.08184976	      0.01319301	      0.14604976	      0.01319301	      0.14783972	      0.01319301	      0.08702167	      0.01319301	      0.16863886	      0.01319301	      0.09850215
      0.18867215	    -10.93744833	     10.24191162	    385.19937122	  -1947.21985033	      0.01318598	      0.13458528	      0.01318598	      0.08688567	      0.01318598	      0.08179956	      0.01318598	      0.14611615	      0.01318598	      0.14790737	      0.01318598	      0.08702885	      0.01318598	      0.16860297	      0.01318598	      0.09857518
      0.18884188	    -10.87200327	      9.91128375	    385.97769965	  -1948.75542821	      0.01317896	      0.13451610	      0.01317896	      0.08683547	      0.01317896	      0.08174937	      0.01317896	      0.14618154	      0.01317896	      0.14797404	      0.01317896	      0.08703551	      0.01317896	      0.16856698	      0.01317896	      0.09863072
      0.18901160	    -10.80642888	      9.58040123	    386.71258446	  -1950.19753376	      0.01317196	      0.13444819	      0.01317196	      0.08678528	      0.01317196	      0.08169917	      0.01317196	      0.14624592	      0.01317196	      0.14803971	      0.01317196	      0.08704166	      0.01317196	      0.16853090	      0.01317196	      0.09870397
      0.18918133	    -10.74073183	      9.24927846	    387.43388949	  -1951.60937726	      0.01316497	      0.13438152	      0.01316497	      0.08673508	      0.01316497	      0.08164897	      0.01316497	      0.14630929	      0.01316497	      0.14810440	      0.01316497	      0.08704732	      0.01316497	      0.16849474	      0.01316497	      0.09875965
      0.18935106	    -10.67491516	      8.91792215	    388.11118103	  -1952.92630410	      0.01315800	      0.13431606	      0.01315800	      0.08668489	      0.01315800	      0.08159878	      0.01315800	      0.14637164	      0.01315800	      0.14816808	      0.01315800	      0.08705250	      0.01315800	      0.16845849	      0.01315800	      0.09883311
      0.18952079	    -10.60898564	      8.58634692	    388.77452111	  -1954.21201061	      0.01315104	      0.13425179	      0.01315104	      0.08663469	      0.01315104	      0.08154859	      0.01315104	      0.14643298	      0.01315104	      0.14823077	      0.01315104	      0.08705721	      0.01315104	      0.16842215	      0.01315104	      0.09888891
      0.18969052	    -10.54294638	      8.25455967	    389.39331920	  -1955.40145676	      0.01314410	      0.13418869	      0.01314410	      0.08658450	      0.01314410	      0.08149839	      0.01314410	      0.14649328	      0.01314410	      0.14829246	      0.01314410	      0.08706147	      0.01314410	      0.16838574	      0.01314410	      0.09896254
      0.18986024	    -10.47680424	      7.92257523	    389.99781505	  -1956.55877783	      0.01313717	      0.13412673	      0.01313717	      0.08653431	      0.01313717	      0.08144820	      0.01313717	      0.14655256	      0.01313717	      0.14835313	      0.01313717	      0.08706530	      0.01313717	      0.16834925	      0.01313717	      0.09901845
      0.19002997	    -10.41056239	      7.59040065	    390.55728320	  -1957.61859892	      0.01313026	      0.13406588	      0.01313026	      0.08648412	      0.01313026	      0.08139801	      0.01313026	      0.14661081	      0.01313026	      0.14841280	      0.01313026	      0.08706870	      0.01313026	      0.16831269	      0.01313026	      0.09909222
      0.19019970	    -10.34422775	      7.25805096	    391.10212018	  -1958.64544591	      0.01312337	      0.13400613	      0.01312337	      0.08643393	      0.01312337	      0.08134782	      0.01312337	      0.14666802	      0.01312337	      0.14847145	      0.01312337	      0.08707171	      0.01312337	      0.16827605	      0.01312337	      0.09914823
      0.19036943	    -10.27780355	      6.92553337	    391.60148786	  -1959.57366048	      0.01311649	      0.13394702	      0.01311649	      0.08638374	      0.01311649	      0.08129764	      0.01311649	      0.14672419	      0.01311649	      0.14852908	      0.01311649	      0.08707433	      0.01311649	      0.16823935	      0.01311649	      0.09922213
      0.19053916	    -10.21129681	      6.59286308	    392.08591825	  -1960.46810982	      0.01310962	      0.13388792	      0.01310962	      0.08633356	      0.01310962	      0.08124745	      0.01310962	      0.14677932	      0.01310962	      0.14858570	      0.01310962	      0.08707658	      0.01310962	      0.16820258	      0.01310962	      0.09927821
      0.19070888	    -10.14471079	      6.26004744	    392.52448298	  -1961.26290432	      0.01310277	      0.13382883	      0.01310277	      0.08628337	      0.01310277	      0.08119726	      0.01310277	      0.14683340	      0.01310277	      0.14864128	      0.01310277	      0.08707849	      0.01310277	      0.16816575	      0.01310277	      0.09935221
      0.19087861	    -10.07805257	      5.92710182	    392.94782803	  -1962.02320244	      0.01309594	      0.13376973	      0.01309594	      0.08623318	      0.01309594	      0.08114708	      0.01309594	      0.14688643	      0.01309594	      0.14869584	      0.01309594	      0.08708008	      0.01309594	      0.16812885	      0.01309594	      0.09940835
      0.19104834	    -10.01132547	      5.59403368	    393.32495755	  -1962.68293623	      0.01308912	      0.13371064	      0.01308912	      0.08618300	      0.01308912	      0.08109689	      0.01308912	      0.14693840	      0.01308912	      0.14874938	      0.01308912	      0.08708135	      0.01308912	      0.16809190	      0.01308912	      0.09948242
      0.19121807	     -9.94453662	      5.26085856	    393.68660975	  -1963.30750495	      0.01308232	      0.13365155	      0.01308232	      0.08613282	      0.01308232	      0.08104671	      0.01308232	      0.14698933	      0.01308232	      0.14880188	      0.01308232	      0.08708234	      0.01308232	      0.16805490	      0.01308232	      0.09953860
      0.19138780	     -9.87768939	      4.92758401	    394.00174429	  -1963.83071604	      0.01307553	      0.13359246	      0.01307553	      0.08608263	      0.01307553	      0.08099653	      0.01307553	      0.14703919	      0.01307553	      0.14885334	      0.01307553	      0.08708305	      0.01307553	      0.16801784	      0.01307553	      0.09961273
      0.19155752	     -9.81079094	      4.59422571	    394.30116983	  -1964.31815881	      0.01306875	      0.13353337	      0.01306875	      0.08603245	      0.01306875	      0.08094635	      0.01306875	      0.14708799	      0.01306875	      0.14890377	      0.01306875	      0.08708352	      0.01306875	      0.16798073	      0.01306875	      0.09966893
      0.19172725	     -9.74384470	      4.26079131	    394.55382483	  -1964.70357066	      0.01306200	      0.13347429	      0.01306200	      0.08598227	      0.01306200	      0.08089617	      0.01306200	      0.14713573	      0.01306200	      0.14895315	      0.01306200	      0.08708374	      0.01306200	      0.16794358	      0.01306200	      0.09974308
      0.19189698	     -9.67685787	      3.92729659	    394.79056657	  -1965.05268025	      0.01305525	      0.13341520	      0.01305525	      0.08593209	      0.01305525	      0.08084599	      0.01305525	      0.14718241	      0.01305525	      0.14900150	      0.01305525	      0.08708373	      0.01305525	      0.16790639	      0.01305525	      0.09979929
      0.19206671	     -9.60983390	      3.59374930	    394.98033818	  -1965.29921705	      0.01304852	      0.13335611	      0.01304852	      0.08588192	      0.01304852	      0.08079581	      0.01304852	      0.14722802	      0.01304852	      0.14904880	      0.01304852	      0.08708330	      0.01304852	      0.16786915	      0.01304852	      0.09987344
      0.19223644	     -9.54278003	      3.26016531	    395.15402997	  -1965.50901626	      0.01304181	      0.13329703	      0.01304181	      0.08583174	      0.01304181	      0.08074563	      0.01304181	      0.14727256	      0.01304181	      0.14909506	      0.01304181	      0.08708239	      0.01304181	      0.16783188	      0.01304181	      0.09992965
      0.19240616	     -9.47569973	      2.92655241	    395.28061712	  -1965.61586602	      0.01303511	      0.13323795	      0.01303511	      0.08578156	      0.01303511	      0.08069545	      0.01303511	      0.14731602	      0.01303511	      0.14914027	      0.01303511	      0.08708096	      0.01303511	      0.16779457	      0.01303511	      0.10000376
      0.19257589	     -9.40860026	      2.59292656	    395.39099993	  -1965.68565376	      0.01302843	      0.13317886	      0.01302843	      0.08573139	      0.01302843	      0.08064528	      0.01302843	      0.14735842	      0.01302843	      0.14918443	      0.01302843	      0.08707896	      0.01302843	      0.16775723	      0.01302843	      0.10005995
      0.19274562	     -9.34148512	      2.25929558	    395.45420823	  -1965.65227905	      0.01302176	      0.13311978	      0.01302176	      0.08568121	      0.01302176	      0.08059510	      0.01302176	      0.14739974	      0.01302176	      0.14922754	      0.01302176	      0.08707635	      0.01302176	      0.16771987	      0.01302176	      0.10013401
      0.19291535	     -9.27436158	      1.92567546	    395.50113110	  -1965.58163257	      0.01301511	      0.13306070	      0.01301511	      0.08563104	      0.01301511	      0.08054493	      0.01301511	      0.14743999	      0.01301511	      0.14926960	      0.01301511	      0.08707309	      0.01301511	      0.16768248	      0.01301511	      0.10019015
      0.19308508	     -9.20723312	      1.59207406	    395.50087703	  -1965.40778257	      0.01300847	      0.13300163	      0.01300847	      0.08558087	      0.01300847	      0.08049476	      0.01300847	      0.14747916	      0.01300847	      0.14931062	      0.01300847	      0.08706911	      0.01300847	      0.16764506	      0.01300847	      0.10026414
      0.19325480	     -9.14010705	      1.25850736	    395.48430259	  -1965.19657392	      0.01300184	      0.13294255	      0.01300184	      0.08553069	      0.01300184	      0.08044459	      0.01300184	      0.14751725	      0.01300184	      0.14935062	      0.01300184	      0.08706439	      0.01300184	      0.16760763	      0.01300184	      0.10032022
